# xmcd
#
# Track frame offsets:
#	150
#	22715
#	43300
#	68247
#
# Disc length: 1123 seconds
#
# Revision: 1
# Processed by: cddbd v1.5.1PL0 Copyright (c) Steve Scherf et al.
# Submitted via: CDex 1.50Beta5
#
DISCID=2c046104
DTITLE=高田志麻 - 雨
DYEAR=1900
DGENRE=Pop
TTITLE0=雨
TTITLE1=めまい
TTITLE2=If
TTITLE3=月のかけら
EXTD=
EXTT0=
EXTT1=
EXTT2=
EXTT3=
PLAYORDER=
